<svg width="754" height="635" viewBox="0 0 754 635" fill="none" xmlns="http://www.w3.org/2000/svg">
<path d="M173.517 595.421C173.517 595.421 207.679 617.662 243.55 634.716H339.134C361.898 617.634 395.106 592.975 398.114 591.861C407.946 586.351 318.879 532.785 318.879 532.785C307.94 528.129 274.783 533.826 270.255 530.934C267.04 528.675 269.233 502.247 269.233 502.247C230.266 477.155 159.643 444.337 103.527 414.256C158.93 385.539 265.12 356.049 327.196 378.995C321.464 351.586 326.104 310.5 329.19 283.107C346.032 303.12 364.408 335.691 384.325 354.566C480.162 325.631 500.274 323.088 598.01 329.556C646.875 332.783 743.124 385.179 753.463 397.757C685.824 312.943 657.778 272.424 485.659 198.23C291.178 114.393 76.615 255.236 52.257 282.309C55.339 254.92 69.314 216.7 90.845 194.163C74.76 180.436 40.475 165.247 18.43 158.645C43.158 154.406 90.88 154.784 114.065 164.242C143.586 136.899 194.785 106.458 235.036 101.393C226.233 88.2446 200.395 50.2335 200.395 50.2335C230.862 60.2775 265.727 63.7686 295.221 75.8196C342.774 58.2066 381.113 30.8796 431.705 38.3926C310.879 -26.6804 118.8 -4.09641 0 69.0796V575.991C39.863 552.479 99.039 541.327 173.517 595.421Z" fill="#750C20"/>
<path d="M238.664 329.077C250.336 331.823 256.665 341.497 264.508 348.157C282.932 302.18 300.554 254.089 351.059 229.622C383.14 251.132 396.876 294.325 417.068 326.518C439.288 304.544 468.547 287.115 501.155 289.009C593.39 294.368 677.378 333.912 745.711 388.023C748.243 391.205 750.819 394.443 753.461 397.756C743.122 385.178 646.874 332.783 598.008 329.556C500.272 323.087 480.16 325.63 384.323 354.565C364.406 335.689 346.03 303.119 329.188 283.106C326.102 310.499 321.463 351.585 327.194 378.994C265.118 356.048 158.928 385.538 103.525 414.255C104.727 414.9 105.945 415.547 107.16 416.194C96.5471 414.744 85.9531 413.586 75.2581 413.16C106.421 362.237 173.711 315.48 238.664 329.077Z" fill="#5E0C1C"/>
<path d="M424.509 34.6766C361.593 42.1016 300.551 46.0635 238.109 40.5565C212.094 38.5285 186.697 24.1276 159.662 33.4136C166.083 50.3306 174.419 65.2916 177.366 83.5576C138.395 99.9056 97.91 119.268 58.492 130.936C47.669 133.926 21.963 125.712 8.51398 135.787C5.38798 137.94 2.57298 140.321 0.000976562 142.881V207.129C9.14798 209.149 16.638 212.862 20.038 218.66C29.372 233.732 13.302 256.676 0.000976562 275.647V399.582C17.455 363.118 34.927 330.013 50.847 292.831C52.937 287.033 55.611 281.542 58.678 276.258C55.882 278.636 53.721 280.68 52.256 282.309C55.338 254.92 69.314 216.7 90.844 194.163C74.759 180.436 40.474 165.247 18.429 158.645C43.156 154.406 90.879 154.784 114.064 164.242C143.585 136.899 194.784 106.458 235.035 101.393C226.232 88.2446 200.394 50.2335 200.394 50.2335C230.861 60.2775 265.726 63.7696 295.22 75.8196C342.773 58.2066 381.112 30.8796 431.704 38.3926C429.336 37.1156 426.931 35.8846 424.509 34.6766Z" fill="#5E0C1C"/>
<path d="M173.517 595.421C173.517 595.421 207.679 617.662 243.55 634.716H326.786C254.978 586.293 177.298 546.252 90.935 517.472C83.54 515.491 74.23 515.467 66.88 517.108C44.113 524.018 21.35 530.941 0.000976562 541.587V575.991C39.863 552.479 99.039 541.326 173.517 595.421Z" fill="#5E0C1C"/>
<path d="M207.409 82.1445C203.213 71.0885 202.601 63.2125 200.393 50.2335C204.188 55.8445 232.766 98.0066 235.034 101.393C230.832 101.922 226.507 102.742 222.104 103.791C214.258 92.2195 207.409 82.1445 207.409 82.1445Z" fill="#BA223F"/>
<path d="M269.612 530.001C229.639 505.507 163.611 474.615 110.541 446.167C119.091 441.735 128.854 437.285 139.475 433.012C187.273 457.469 238.254 482.299 269.232 502.246C269.232 502.247 267.365 524.777 269.612 530.001Z" fill="#BA223F"/>
<path d="M0 69.0795V105.413C98.399 41.5476 251.766 13.6815 371.477 44.5095C390.424 38.3875 409.928 35.1586 431.704 38.3916C310.879 -26.6804 118.8 -4.09646 0 69.0795Z" fill="#BA223F"/>
<path d="M325.894 564.696C314.955 560.04 281.798 565.737 277.27 562.845C274.055 560.586 276.248 534.158 276.248 534.158C274.887 533.281 273.477 532.393 272.04 531.498C280.337 532.919 308.88 528.53 318.879 532.785C318.879 532.785 407.947 586.351 398.114 591.861C396.949 592.293 391.25 596.259 383.384 601.947C359.724 585.043 325.894 564.696 325.894 564.696Z" fill="#BA223F"/>
<path d="M18.428 158.644C18.428 158.644 56.558 170.705 83.799 188.817C86.403 190.608 88.775 192.397 90.843 194.161C85.784 199.456 81.149 205.624 76.967 212.307C60.384 203.222 33.166 163.058 18.428 158.644Z" fill="#BA223F"/>
<path d="M492.673 230.141C298.192 146.304 83.629 287.147 59.271 314.22C60.911 299.643 65.638 281.998 72.946 265.282C136.012 220.351 318.271 126.071 485.658 198.228C657.776 272.422 685.822 312.942 753.461 397.756C749.611 393.073 733.847 382.868 713.056 371.737C668.906 321.809 620.56 285.268 492.673 230.141Z" fill="#BA223F"/>
<path d="M0 481.732C64.281 368.294 206.836 300.727 206.836 300.727C154.777 300.096 72.665 311.582 0 338.491V481.732Z" fill="#750C20"/>
<path d="M739.845 634.716C660.818 563.316 551.981 525.28 411.225 517.103C314.774 511.508 121.043 555.166 24.5559 634.716H739.845Z" fill="#750C20"/>
<path d="M624.036 634.716C601.418 627.162 578.339 623.316 556.345 633.955C555.902 634.181 555.517 634.441 555.158 634.716H624.036Z" fill="#5E0C1C"/>
<path d="M167.856 302.162C118.372 331.173 73.832 363.821 33.604 401.434C21.901 412.841 10.421 424.335 0 436.434V481.732C64.281 368.294 206.836 300.727 206.836 300.727C195.201 300.586 182.053 301.056 167.856 302.162Z" fill="#5E0C1C"/>
<path d="M61.6719 634.716C177.647 574.503 318.549 539.046 404.279 544.019C526.17 551.101 624.122 580.575 699.51 634.716H739.845C660.818 563.316 551.981 525.28 411.225 517.103C314.773 511.508 121.043 555.167 24.5559 634.716H61.6719Z" fill="#BA223F"/>
<path d="M0 338.491V362.89C52.713 344.22 109.674 333.492 156.147 329.47C185.753 310.72 206.836 300.727 206.836 300.727C154.777 300.096 72.665 311.582 0 338.491Z" fill="#BA223F"/>
</svg>
