<svg width="836" height="918" viewBox="0 0 836 918" fill="none" xmlns="http://www.w3.org/2000/svg">
<path d="M605.468 83.5912C636.055 69.8962 671.614 65.4632 703.076 53.9452C703.076 53.9452 674.757 95.9542 665.098 110.482C705.646 115.307 755.89 147.678 784.316 177.046C796.988 171.38 816.435 168.354 835.633 167.371V34.6142C721.234 -11.4858 572.524 -14.9668 469.104 45.0902C520.839 35.9842 558.21 65.1782 605.468 83.5912Z" fill="#750C20"/>
<path d="M835.632 273.156V189.689C824.084 195.998 813.468 202.844 806.207 209.344C820.099 225.711 830.099 249.942 835.632 273.156Z" fill="#750C20"/>
<path d="M835.632 299.817C796.416 261.535 597.397 130.409 405.503 220.771C226.796 304.919 196.099 349.709 122.781 443.619C133.966 429.687 234.504 370.709 284.25 366.317C383.747 357.518 404.007 359.942 499.613 389.878C520.863 368.892 541.311 332.962 559.506 310.787C561.116 340.677 563.541 385.509 556.205 415.572C620.445 389.392 726.522 419.751 781.126 450.163C722.534 484.038 649.076 521.162 608.157 549.28C608.157 549.28 608.914 578.131 605.527 580.657C600.773 583.899 567.457 578.257 556.103 583.54C556.103 583.54 462.784 643.671 472.451 649.52C476.847 651.233 544.641 707.433 550.279 712.263C578.993 733.517 700.072 649.44 700.072 649.44C754.617 607.463 799.929 600.013 835.633 607.747V299.817H835.632Z" fill="#750C20"/>
<path d="M672.995 391.732C661.003 394.94 654.046 405.627 645.721 413.046C629.585 363.112 614.38 310.853 564.509 285C530.774 309.081 514.442 356.54 492.174 392.089C470.855 368.461 442.143 349.926 408.963 352.573C315.107 360.062 227.719 404.775 155.402 465.135C152.656 468.659 149.864 472.244 147 475.912C158.185 461.98 258.723 403.002 308.469 398.61C407.966 389.811 428.226 392.235 523.832 422.171C545.082 401.185 565.531 365.255 583.725 343.08C585.334 372.97 587.759 417.802 580.424 447.865C644.664 421.684 750.741 452.044 805.344 482.456C804.089 483.182 802.817 483.911 801.549 484.64C812.394 482.867 823.205 481.414 834.078 480.759C805.294 425.642 739.634 375.72 672.995 391.732Z" fill="#5E0C1C"/>
<path d="M835.632 137.453C798.529 125.213 760.951 106.144 724.585 89.9663C728.588 69.9463 737.874 53.4453 745.326 34.8383C718.418 25.1653 691.858 41.3563 665.357 44.0333C601.713 51.1573 540.015 47.9053 476.609 40.9013C474.085 42.2653 471.578 43.6543 469.104 45.0903C520.84 35.9833 558.211 65.1773 605.469 83.5913C636.056 69.8963 671.615 65.4633 703.076 53.9453C703.076 53.9453 674.757 95.9543 665.098 110.482C705.646 115.307 755.89 147.678 784.316 177.046C796.988 171.38 816.435 168.354 835.633 167.371V137.453H835.632Z" fill="#5E0C1C"/>
<path d="M835.632 189.689C824.084 195.998 813.468 202.844 806.207 209.344C820.099 225.711 830.099 249.942 835.632 273.156V189.689Z" fill="#5E0C1C"/>
<path d="M835.632 569.392C827.992 566.806 820.29 564.374 812.587 561.948C805.223 560.284 795.778 560.475 788.167 562.771C696.275 596.755 613.067 643.638 535.6 700.037C543.2 706.326 548.82 711.015 550.278 712.265C578.992 733.519 700.071 649.442 700.071 649.442C754.616 607.465 799.928 600.015 835.632 607.749V569.392Z" fill="#5E0C1C"/>
<path d="M694.187 88.9533C699.057 76.7933 700.115 68.1723 703.075 53.9453C698.915 60.1453 667.585 106.74 665.097 110.482C669.33 110.986 673.672 111.805 678.08 112.875C686.681 100.088 694.187 88.9533 694.187 88.9533Z" fill="#BA223F"/>
<path d="M606.229 579.627C648.135 552.145 716.825 517.208 772.236 485.171C763.809 480.477 754.153 475.786 743.617 471.302C693.775 498.882 640.685 526.926 608.155 549.28C608.156 549.281 608.799 573.877 606.229 579.627Z" fill="#BA223F"/>
<path d="M835.632 34.6142C721.233 -11.4858 572.523 -14.9668 469.103 45.0902C491.371 41.1702 510.975 44.3552 529.855 50.7132C627.073 22.4372 743.534 33.7852 835.632 73.3122V34.6142Z" fill="#BA223F"/>
<path d="M547.214 618.549C558.568 613.266 591.885 618.908 596.639 615.666C600.025 613.14 599.268 584.289 599.268 584.289C600.698 583.306 602.177 582.31 603.684 581.306C595.189 583.006 566.48 578.713 556.102 583.541C556.102 583.541 462.782 643.672 472.45 649.521C473.608 649.972 479.169 654.207 486.831 660.286C511.769 641.39 547.214 618.549 547.214 618.549Z" fill="#BA223F"/>
<path d="M835.632 189.877C828.15 193.93 820.585 198.465 813.649 203.377C810.908 205.381 808.402 207.378 806.207 209.344C811.045 215.043 815.404 221.704 819.274 228.936C823.983 226.157 829.619 220.845 835.631 214.494V189.877H835.632Z" fill="#BA223F"/>
<path d="M396.615 255.779C598.54 160.694 808.363 310.862 831.568 340.027C830.714 324.121 826.899 304.917 820.413 286.773C758.937 238.771 579.297 138.933 405.503 220.771C226.797 304.919 196.099 349.709 122.781 443.619C126.946 438.431 143.503 426.997 165.21 414.462C212.764 359.102 263.833 318.302 396.615 255.779Z" fill="#BA223F"/>
<path d="M835.632 917.753V678.375C738.075 600.582 556.98 560.565 463.301 568.031C232.082 586.48 80.889 688.474 0.000976562 890.434C43.509 852.729 88.9311 829.137 132.398 814.847C159.457 782.617 196.903 760.586 241.742 756.219C223.891 771.016 206.046 785.816 188.872 800.889C288.574 784.014 366.435 809.881 366.435 809.881C373.819 791.445 401.391 749.093 403.238 744.482C419.62 756.557 444.134 788.067 445.863 810.24C481.075 798.539 523.045 795.936 564.574 800.841C567.646 786.666 571.307 772.734 574.98 758.806C581.342 774.007 587.675 789.224 592.163 805.229C634.623 813.705 674.896 829.866 704.957 852.031C645.633 869.168 593.856 891.696 548.686 917.752H835.632V917.753Z" fill="#750C20"/>
<path d="M835.632 450.653V347.738C779.186 332.673 722.447 326.674 682.634 327.887C682.634 327.887 769.768 372.025 835.632 450.653Z" fill="#750C20"/>
<path d="M704.956 852.032C720.249 814.257 706.539 770.819 672.425 749.013C640.089 728.344 607.304 709.038 568.727 702.987C538.806 697.494 536.766 742.687 510.483 748.161C503.337 749.294 496.28 730.157 487.331 722.428C430.839 683.032 366.163 724.216 307.135 737.932C306.044 723.947 319.493 703.736 309.612 698.333C271.921 678.826 228.493 707.057 190.654 721.334C124.937 745.297 74.4249 788.936 25.3519 834.843C16.2459 852.458 7.793 870.977 0 890.433C43.508 852.728 88.9299 829.136 132.397 814.846C159.457 782.616 196.902 760.585 241.741 756.218C223.89 771.015 206.044 785.815 188.871 800.888C288.573 784.013 366.434 809.88 366.434 809.88C373.818 791.444 401.39 749.092 403.237 744.481C419.62 756.556 444.133 788.066 445.862 810.239C481.073 798.538 523.044 795.935 564.573 800.84C567.645 786.665 571.306 772.733 574.979 758.804C581.342 774.006 587.673 789.222 592.161 805.227C631.141 813.008 668.254 827.282 697.338 846.716C701.507 849.166 704.956 852.032 704.956 852.032Z" fill="#5E0C1C"/>
<path d="M835.632 417.711C801.36 384.495 763.64 355.138 722.093 328.766C707.754 327.808 694.444 327.527 682.634 327.887C682.634 327.887 769.768 372.026 835.632 450.653V417.711Z" fill="#5E0C1C"/>
<path d="M835.632 678.375C738.075 600.582 556.98 560.565 463.301 568.031C232.082 586.48 80.889 688.474 0.000976562 890.434C9.67898 882.047 19.452 874.362 29.277 867.318C114.494 699.996 258.576 614.11 468.852 597.332C562.381 589.878 717.663 632.103 835.632 704.642V678.375Z" fill="#BA223F"/>
<path d="M835.632 347.737C779.187 332.673 722.447 326.673 682.634 327.886C682.634 327.886 703.465 338.437 732.455 358.411C763.763 360.797 799.643 366.368 835.632 375.596V347.737Z" fill="#BA223F"/>
<path d="M247.293 785.521C228.352 787.366 210.736 792.373 194.659 799.959C208.588 797.811 222.06 796.485 234.921 795.79C239.039 792.365 243.165 788.943 247.293 785.521Z" fill="#BA223F"/>
<path d="M611.344 917.753C641.804 903.933 674.784 891.653 710.507 881.334C700.267 873.783 688.82 866.949 676.527 860.858C628.925 876.626 586.496 895.955 548.695 917.753H611.344Z" fill="#BA223F"/>
</svg>
