<svg width="1103" height="441" viewBox="0 0 1103 441" fill="none" xmlns="http://www.w3.org/2000/svg">
<path opacity="0.05" d="M890.218 440.856H1066.25C1092.13 427.348 1106.5 408.04 1102.27 387.537C1094.86 351.661 1033.33 325.721 964.831 329.599C896.33 333.476 846.801 365.703 854.205 401.578C857.398 417.052 870.668 430.675 890.218 440.856Z" fill="#E5EDD4"/>
<path opacity="0.05" d="M907.933 371.883C926.831 361.978 926.831 345.919 907.933 336.014C889.036 326.109 858.397 326.109 839.5 336.014C820.603 345.919 820.603 361.978 839.5 371.883C858.397 381.788 889.036 381.788 907.933 371.883Z" fill="#E5EDD4"/>
<path opacity="0.05" d="M839.308 353.448C856.895 349.165 864.528 338.221 856.358 329.003C848.188 319.784 827.308 315.783 809.721 320.065C792.134 324.347 784.5 335.292 792.67 344.51C800.84 353.728 821.721 357.73 839.308 353.448Z" fill="#E5EDD4"/>
<path opacity="0.05" d="M102.089 53.5097C120.883 43.6588 120.883 27.6874 102.089 17.8365C83.2946 7.98566 52.8235 7.98567 34.0295 17.8365C15.2355 27.6874 15.2355 43.6588 34.0295 53.5097C52.8235 63.3605 83.2946 63.3605 102.089 53.5097Z" fill="#E5EDD4"/>
<path opacity="0.05" d="M139.179 67.8621C152.816 60.714 152.817 49.1246 139.179 41.9766C125.542 34.8286 103.431 34.8287 89.7936 41.9768C76.156 49.125 76.1558 60.7143 89.7932 67.8623C103.431 75.0103 125.541 75.0102 139.179 67.8621Z" fill="#E5EDD4"/>
</svg>
