<svg width="2854" height="1191" viewBox="0 0 2854 1191" fill="none" xmlns="http://www.w3.org/2000/svg">
<path d="M2436.8 35.2451C2436.8 34.8856 2436.8 34.5262 2436.8 34.1658" stroke="white" stroke-width="2.9602" stroke-miterlimit="10" stroke-linecap="round" stroke-linejoin="round"/>
<path d="M2375.57 152.85C2375.2 153.21 2374.83 153.569 2374.46 153.93" stroke="white" stroke-width="2.9602" stroke-miterlimit="10" stroke-linecap="round" stroke-linejoin="round"/>
<path d="M2226.41 74.0872C2226.04 74.0872 2225.67 74.0872 2225.3 74.0872" stroke="white" stroke-width="2.9602" stroke-miterlimit="10" stroke-linecap="round" stroke-linejoin="round"/>
<path d="M2269.82 184.139C2269.82 183.78 2269.82 183.42 2269.82 183.06" stroke="white" stroke-width="2.9602" stroke-miterlimit="10" stroke-linecap="round" stroke-linejoin="round"/>
<path d="M2346.83 298.541C2346.73 299.068 2347.87 299.029 2347.74 298.509" stroke="white" stroke-width="2.9602" stroke-miterlimit="10" stroke-linecap="round" stroke-linejoin="round"/>
<path d="M2198.58 261.823C2198.58 262.182 2198.58 262.543 2198.58 262.902" stroke="white" stroke-width="2.9602" stroke-miterlimit="10" stroke-linecap="round" stroke-linejoin="round"/>
<path d="M2273.16 439.85C2273.53 439.491 2273.91 439.131 2274.28 438.771" stroke="white" stroke-width="2.9602" stroke-miterlimit="10" stroke-linecap="round" stroke-linejoin="round"/>
<path d="M2594.86 284.481C2594.86 284.122 2594.86 283.762 2594.86 283.402" stroke="white" stroke-width="2.9602" stroke-miterlimit="10" stroke-linecap="round" stroke-linejoin="round"/>
<path d="M2801.91 310.376C2802.28 310.017 2802.65 309.657 2803.02 309.297" stroke="white" stroke-width="2.9602" stroke-miterlimit="10" stroke-linecap="round" stroke-linejoin="round"/>
<path d="M2740.68 224.06C2740.68 224.42 2740.68 224.779 2740.68 225.14" stroke="white" stroke-width="2.9602" stroke-miterlimit="10" stroke-linecap="round" stroke-linejoin="round"/>
<path d="M2790.78 84.8764C2790.78 84.517 2790.78 84.1575 2790.78 83.7971" stroke="white" stroke-width="2.9602" stroke-miterlimit="10" stroke-linecap="round" stroke-linejoin="round"/>
<path d="M2823.06 53.5866C2823.43 52.8677 2823.8 52.1479 2824.17 51.429" stroke="white" stroke-width="2.9602" stroke-miterlimit="10" stroke-linecap="round" stroke-linejoin="round"/>
<path d="M2852 94.5874C2852 94.2279 2852 93.8684 2852 93.5081" stroke="white" stroke-width="2.9602" stroke-miterlimit="10" stroke-linecap="round" stroke-linejoin="round"/>
<path d="M2692.82 74.0872C2692.45 74.0872 2692.08 74.0872 2691.71 74.0872" stroke="white" stroke-width="2.9602" stroke-miterlimit="10" stroke-linecap="round" stroke-linejoin="round"/>
<path d="M2723.39 347.969C2723.39 347.332 2723.39 346.695 2723.39 346.058" stroke="white" stroke-width="2.9602" stroke-miterlimit="10" stroke-linecap="round" stroke-linejoin="round"/>
<path d="M2648.46 531.467C2648.46 530.83 2648.46 530.193 2648.46 529.556" stroke="white" stroke-width="2.9602" stroke-miterlimit="10" stroke-linecap="round" stroke-linejoin="round"/>
<path d="M2581.41 867.879C2580.75 867.879 2580.09 867.879 2579.44 867.879" stroke="white" stroke-width="2.9602" stroke-miterlimit="10" stroke-linecap="round" stroke-linejoin="round"/>
<path d="M2419.7 917.577C2420.36 917.577 2421.02 917.577 2421.68 917.577" stroke="white" stroke-width="2.9602" stroke-miterlimit="10" stroke-linecap="round" stroke-linejoin="round"/>
<path d="M2358.57 846.854C2359.88 846.854 2361.2 846.854 2362.51 846.854" stroke="white" stroke-width="2.9602" stroke-miterlimit="10" stroke-linecap="round" stroke-linejoin="round"/>
<path d="M2743.11 846.854C2743.11 846.217 2743.11 845.58 2743.11 844.943" stroke="white" stroke-width="2.9602" stroke-miterlimit="10" stroke-linecap="round" stroke-linejoin="round"/>
<path d="M2754.95 873.614C2754.95 874.251 2754.95 874.888 2754.95 875.525" stroke="white" stroke-width="2.9602" stroke-miterlimit="10" stroke-linecap="round" stroke-linejoin="round"/>
<path d="M2721.42 1072.4C2720.77 1071.77 2720.11 1071.13 2719.45 1070.49" stroke="white" stroke-width="2.9602" stroke-miterlimit="10" stroke-linecap="round" stroke-linejoin="round"/>
<path d="M2823.97 1099.16C2823.97 1099.8 2823.97 1100.44 2823.97 1101.07" stroke="white" stroke-width="2.9602" stroke-miterlimit="10" stroke-linecap="round" stroke-linejoin="round"/>
<path d="M1855.7 854.5C1855.05 854.5 1854.39 854.5 1853.73 854.5" stroke="white" stroke-width="2.9602" stroke-miterlimit="10" stroke-linecap="round" stroke-linejoin="round"/>
<path d="M2058.82 542.935C2058.82 542.298 2058.82 541.661 2058.82 541.024" stroke="white" stroke-width="2.9602" stroke-miterlimit="10" stroke-linecap="round" stroke-linejoin="round"/>
<path d="M2188.98 586.899C2188.32 586.899 2187.66 586.899 2187 586.899" stroke="white" stroke-width="2.9602" stroke-miterlimit="10" stroke-linecap="round" stroke-linejoin="round"/>
<path d="M1934.58 116.687C1933.93 117.324 1933.27 117.961 1932.61 118.598" stroke="white" stroke-width="2.9602" stroke-miterlimit="10" stroke-linecap="round" stroke-linejoin="round"/>
<path d="M1855.7 65.0773C1855.7 64.4398 1855.7 63.8032 1855.7 63.1658" stroke="white" stroke-width="2.9602" stroke-miterlimit="10" stroke-linecap="round" stroke-linejoin="round"/>
<path d="M1786.68 282.98C1786.03 282.98 1785.37 282.98 1784.71 282.98" stroke="white" stroke-width="2.9602" stroke-miterlimit="10" stroke-linecap="round" stroke-linejoin="round"/>
<path d="M1741.33 380.464C1741.98 380.464 1742.64 380.464 1743.3 380.464" stroke="white" stroke-width="2.9602" stroke-miterlimit="10" stroke-linecap="round" stroke-linejoin="round"/>
<path d="M1490.88 156.826C1492.85 156.826 1494.82 156.826 1496.79 156.826" stroke="white" stroke-width="2.9602" stroke-miterlimit="10" stroke-linecap="round" stroke-linejoin="round"/>
<path d="M1656.53 145.358C1655.87 145.358 1655.21 145.358 1654.56 145.358" stroke="white" stroke-width="2.9602" stroke-miterlimit="10" stroke-linecap="round" stroke-linejoin="round"/>
<path d="M1181.27 277.247C1181.93 276.61 1182.59 275.973 1183.24 275.336" stroke="white" stroke-width="2.9602" stroke-miterlimit="10" stroke-linecap="round" stroke-linejoin="round"/>
<path d="M1066.89 154.914C1067.55 155.552 1068.21 156.188 1068.87 156.826" stroke="white" stroke-width="2.9602" stroke-miterlimit="10" stroke-linecap="round" stroke-linejoin="round"/>
<path d="M810.53 487.504C810.53 486.867 810.53 486.23 810.53 485.593" stroke="white" stroke-width="2.9602" stroke-miterlimit="10" stroke-linecap="round" stroke-linejoin="round"/>
<path d="M729.678 506.618C729.021 506.618 728.363 506.618 727.705 506.618" stroke="white" stroke-width="2.9602" stroke-miterlimit="10" stroke-linecap="round" stroke-linejoin="round"/>
<path d="M842.083 579.253C842.74 579.253 843.397 579.253 844.055 579.253" stroke="white" stroke-width="2.9602" stroke-miterlimit="10" stroke-linecap="round" stroke-linejoin="round"/>
<path d="M749.398 657.622C749.398 656.985 749.398 656.348 749.398 655.711" stroke="white" stroke-width="2.9602" stroke-miterlimit="10" stroke-linecap="round" stroke-linejoin="round"/>
<path d="M834.195 930.957C832.567 930.957 832.567 930.957 834.195 930.957" stroke="white" stroke-width="2.9602" stroke-miterlimit="10" stroke-linecap="round" stroke-linejoin="round"/>
<path d="M909.132 900.374C907.504 900.374 907.504 900.374 909.132 900.374" stroke="white" stroke-width="2.9602" stroke-miterlimit="10" stroke-linecap="round" stroke-linejoin="round"/>
<path d="M993.928 778.042C993.928 776.464 993.928 776.464 993.928 778.042" stroke="white" stroke-width="2.9602" stroke-miterlimit="10" stroke-linecap="round" stroke-linejoin="round"/>
<path d="M832.223 1187.09C832.88 1187.09 833.537 1187.09 834.195 1187.09" stroke="white" stroke-width="2.9602" stroke-miterlimit="10" stroke-linecap="round" stroke-linejoin="round"/>
<path d="M709.958 978.743C710.615 978.743 711.272 978.743 711.93 978.743" stroke="white" stroke-width="2.9602" stroke-miterlimit="10" stroke-linecap="round" stroke-linejoin="round"/>
<path d="M518.67 934.779C518.67 934.142 518.67 933.505 518.67 932.868" stroke="white" stroke-width="2.9602" stroke-miterlimit="10" stroke-linecap="round" stroke-linejoin="round"/>
<path d="M143.987 1189C144.644 1189 145.301 1189 145.959 1189" stroke="white" stroke-width="2.9602" stroke-miterlimit="10" stroke-linecap="round" stroke-linejoin="round"/>
<path d="M71.0208 1045.64C71.0208 1045.01 71.0208 1044.37 71.0208 1043.73" stroke="white" stroke-width="2.9602" stroke-miterlimit="10" stroke-linecap="round" stroke-linejoin="round"/>
<path d="M2 1091.52C2 1092.15 2 1092.79 2 1093.43" stroke="white" stroke-width="2.9602" stroke-miterlimit="10" stroke-linecap="round" stroke-linejoin="round"/>
<path d="M116.377 890.816C115.72 890.179 115.063 889.542 114.405 888.905" stroke="white" stroke-width="2.9602" stroke-miterlimit="10" stroke-linecap="round" stroke-linejoin="round"/>
<path d="M71.021 799.068C70.3639 799.068 69.7067 799.068 69.0486 799.068" stroke="white" stroke-width="2.9602" stroke-miterlimit="10" stroke-linecap="round" stroke-linejoin="round"/>
<path d="M358.936 544.847C360.251 544.847 361.566 544.847 362.88 544.847" stroke="white" stroke-width="2.9602" stroke-miterlimit="10" stroke-linecap="round" stroke-linejoin="round"/>
<path d="M538.391 535.291C539.048 534.653 539.705 534.017 540.363 533.379" stroke="white" stroke-width="2.9602" stroke-miterlimit="10" stroke-linecap="round" stroke-linejoin="round"/>
<path d="M592.37 644.645C593.027 645.282 593.684 645.919 594.343 646.556" stroke="white" stroke-width="2.9602" stroke-miterlimit="10" stroke-linecap="round" stroke-linejoin="round"/>
<path d="M213.007 481.77C213.664 481.77 214.321 481.77 214.98 481.77" stroke="white" stroke-width="2.9602" stroke-miterlimit="10" stroke-linecap="round" stroke-linejoin="round"/>
<path d="M282.028 441.63C282.685 441.63 283.342 441.63 284 441.63" stroke="white" stroke-width="2.9602" stroke-miterlimit="10" stroke-linecap="round" stroke-linejoin="round"/>
<path d="M106.517 372.819C107.174 372.819 107.832 372.819 108.49 372.819" stroke="white" stroke-width="2.9602" stroke-miterlimit="10" stroke-linecap="round" stroke-linejoin="round"/>
<path d="M668.544 342.236C668.544 340.657 668.544 340.657 668.544 342.236" stroke="white" stroke-width="2.9602" stroke-miterlimit="10" stroke-linecap="round" stroke-linejoin="round"/>
<path d="M544.307 114.775C544.964 114.775 545.621 114.775 546.279 114.775" stroke="white" stroke-width="2.9602" stroke-miterlimit="10" stroke-linecap="round" stroke-linejoin="round"/>
<path d="M706.013 47.8748C706.013 48.5122 706.013 49.1488 706.013 49.7862" stroke="white" stroke-width="2.9602" stroke-miterlimit="10" stroke-linecap="round" stroke-linejoin="round"/>
<path d="M459.51 24.937C460.167 25.5745 460.824 26.211 461.482 26.8485" stroke="white" stroke-width="2.9602" stroke-miterlimit="10" stroke-linecap="round" stroke-linejoin="round"/>
<path d="M305.692 7.73449C305.692 7.09701 305.692 6.46047 305.692 5.823" stroke="white" stroke-width="2.9602" stroke-miterlimit="10" stroke-linecap="round" stroke-linejoin="round"/>
<path d="M49.3291 95.6602C48.672 95.6602 48.0148 95.6602 47.3567 95.6602" stroke="white" stroke-width="2.9602" stroke-miterlimit="10" stroke-linecap="round" stroke-linejoin="round"/>
<path d="M116.377 3.91149C117.035 3.27401 117.692 2.63748 118.35 2" stroke="white" stroke-width="2.9602" stroke-miterlimit="10" stroke-linecap="round" stroke-linejoin="round"/>
<g opacity="0.4">
<path opacity="0.4" d="M499.653 1099.01C499.653 1099.34 499.653 1099.67 499.653 1100" stroke="white" stroke-width="2.7185" stroke-miterlimit="10" stroke-linecap="round" stroke-linejoin="round"/>
<path opacity="0.4" d="M555.878 991.008C556.218 990.678 556.559 990.348 556.899 990.017" stroke="white" stroke-width="2.7185" stroke-miterlimit="10" stroke-linecap="round" stroke-linejoin="round"/>
<path opacity="0.4" d="M692.861 1063.34C693.202 1063.34 693.542 1063.34 693.883 1063.34" stroke="white" stroke-width="2.7185" stroke-miterlimit="10" stroke-linecap="round" stroke-linejoin="round"/>
<path opacity="0.4" d="M652.992 962.273C652.992 962.604 652.992 962.934 652.992 963.264" stroke="white" stroke-width="2.7185" stroke-miterlimit="10" stroke-linecap="round" stroke-linejoin="round"/>
<path opacity="0.4" d="M582.276 857.213C582.364 856.729 581.318 856.765 581.441 857.242" stroke="white" stroke-width="2.7185" stroke-miterlimit="10" stroke-linecap="round" stroke-linejoin="round"/>
<path opacity="0.4" d="M718.417 890.932C718.417 890.602 718.417 890.271 718.417 889.941" stroke="white" stroke-width="2.7185" stroke-miterlimit="10" stroke-linecap="round" stroke-linejoin="round"/>
<path opacity="0.4" d="M649.926 727.442C649.586 727.772 649.244 728.103 648.904 728.432" stroke="white" stroke-width="2.7185" stroke-miterlimit="10" stroke-linecap="round" stroke-linejoin="round"/>
<path opacity="0.4" d="M354.492 870.124C354.492 870.454 354.492 870.785 354.492 871.114" stroke="white" stroke-width="2.7185" stroke-miterlimit="10" stroke-linecap="round" stroke-linejoin="round"/>
<path opacity="0.4" d="M164.352 846.344C164.012 846.674 163.67 847.005 163.33 847.334" stroke="white" stroke-width="2.7185" stroke-miterlimit="10" stroke-linecap="round" stroke-linejoin="round"/>
<path opacity="0.4" d="M220.576 925.613C220.576 925.282 220.576 924.952 220.576 924.621" stroke="white" stroke-width="2.7185" stroke-miterlimit="10" stroke-linecap="round" stroke-linejoin="round"/>
<path opacity="0.4" d="M174.575 1053.43C174.575 1053.76 174.575 1054.09 174.575 1054.42" stroke="white" stroke-width="2.7185" stroke-miterlimit="10" stroke-linecap="round" stroke-linejoin="round"/>
<path opacity="0.4" d="M144.928 1082.17C144.587 1082.83 144.247 1083.49 143.906 1084.15" stroke="white" stroke-width="2.7185" stroke-miterlimit="10" stroke-linecap="round" stroke-linejoin="round"/>
<path opacity="0.4" d="M118.35 1044.51C118.35 1044.84 118.35 1045.17 118.35 1045.5" stroke="white" stroke-width="2.7185" stroke-miterlimit="10" stroke-linecap="round" stroke-linejoin="round"/>
<path opacity="0.4" d="M264.533 1063.34C264.874 1063.34 265.215 1063.34 265.555 1063.34" stroke="white" stroke-width="2.7185" stroke-miterlimit="10" stroke-linecap="round" stroke-linejoin="round"/>
<path opacity="0.4" d="M236.455 811.82C236.455 812.405 236.455 812.99 236.455 813.575" stroke="white" stroke-width="2.7185" stroke-miterlimit="10" stroke-linecap="round" stroke-linejoin="round"/>
<path opacity="0.4" d="M305.274 643.305C305.274 643.89 305.274 644.475 305.274 645.06" stroke="white" stroke-width="2.7185" stroke-miterlimit="10" stroke-linecap="round" stroke-linejoin="round"/>
<path opacity="0.4" d="M366.848 334.36C367.451 334.36 368.055 334.36 368.659 334.36" stroke="white" stroke-width="2.7185" stroke-miterlimit="10" stroke-linecap="round" stroke-linejoin="round"/>
<path opacity="0.4" d="M515.351 288.72C514.747 288.72 514.143 288.72 513.54 288.72" stroke="white" stroke-width="2.7185" stroke-miterlimit="10" stroke-linecap="round" stroke-linejoin="round"/>
<path opacity="0.4" d="M571.492 353.669C570.284 353.669 569.078 353.669 567.87 353.669" stroke="white" stroke-width="2.7185" stroke-miterlimit="10" stroke-linecap="round" stroke-linejoin="round"/>
<path opacity="0.4" d="M218.345 353.669C218.345 354.254 218.345 354.839 218.345 355.424" stroke="white" stroke-width="2.7185" stroke-miterlimit="10" stroke-linecap="round" stroke-linejoin="round"/>
<path opacity="0.4" d="M207.479 329.094C207.479 328.509 207.479 327.924 207.479 327.339" stroke="white" stroke-width="2.7185" stroke-miterlimit="10" stroke-linecap="round" stroke-linejoin="round"/>
<path opacity="0.4" d="M238.266 146.536C238.869 147.121 239.474 147.706 240.077 148.291" stroke="white" stroke-width="2.7185" stroke-miterlimit="10" stroke-linecap="round" stroke-linejoin="round"/>
<path opacity="0.4" d="M144.093 121.96C144.093 121.375 144.093 120.79 144.093 120.205" stroke="white" stroke-width="2.7185" stroke-miterlimit="10" stroke-linecap="round" stroke-linejoin="round"/>
<path opacity="0.4" d="M1033.3 346.647C1033.9 346.647 1034.51 346.647 1035.11 346.647" stroke="white" stroke-width="2.7185" stroke-miterlimit="10" stroke-linecap="round" stroke-linejoin="round"/>
<path opacity="0.4" d="M846.766 632.773C846.766 633.358 846.766 633.943 846.766 634.528" stroke="white" stroke-width="2.7185" stroke-miterlimit="10" stroke-linecap="round" stroke-linejoin="round"/>
<path opacity="0.4" d="M727.239 592.399C727.843 592.399 728.447 592.399 729.05 592.399" stroke="white" stroke-width="2.7185" stroke-miterlimit="10" stroke-linecap="round" stroke-linejoin="round"/>
<path opacity="0.4" d="M960.86 1024.22C961.463 1023.63 962.067 1023.05 962.671 1022.46" stroke="white" stroke-width="2.7185" stroke-miterlimit="10" stroke-linecap="round" stroke-linejoin="round"/>
<path opacity="0.4" d="M1033.3 1071.61C1033.3 1072.2 1033.3 1072.78 1033.3 1073.37" stroke="white" stroke-width="2.7185" stroke-miterlimit="10" stroke-linecap="round" stroke-linejoin="round"/>
<path opacity="0.4" d="M1096.69 871.502C1097.29 871.502 1097.89 871.502 1098.5 871.502" stroke="white" stroke-width="2.7185" stroke-miterlimit="10" stroke-linecap="round" stroke-linejoin="round"/>
<path opacity="0.4" d="M1138.34 781.978C1137.74 781.978 1137.13 781.978 1136.53 781.978" stroke="white" stroke-width="2.7185" stroke-miterlimit="10" stroke-linecap="round" stroke-linejoin="round"/>
<path opacity="0.4" d="M1368.34 987.357C1366.53 987.357 1364.72 987.357 1362.9 987.357" stroke="white" stroke-width="2.7185" stroke-miterlimit="10" stroke-linecap="round" stroke-linejoin="round"/>
<path opacity="0.4" d="M1216.21 997.889C1216.82 997.889 1217.42 997.889 1218.02 997.889" stroke="white" stroke-width="2.7185" stroke-miterlimit="10" stroke-linecap="round" stroke-linejoin="round"/>
<path opacity="0.4" d="M1652.67 876.768C1652.06 877.353 1651.46 877.938 1650.85 878.524" stroke="white" stroke-width="2.7185" stroke-miterlimit="10" stroke-linecap="round" stroke-linejoin="round"/>
<path opacity="0.4" d="M1757.7 989.112C1757.1 988.527 1756.5 987.942 1755.89 987.357" stroke="white" stroke-width="2.7185" stroke-miterlimit="10" stroke-linecap="round" stroke-linejoin="round"/>
<path opacity="0.4" d="M1993.14 683.678C1993.14 684.263 1993.14 684.848 1993.14 685.433" stroke="white" stroke-width="2.7185" stroke-miterlimit="10" stroke-linecap="round" stroke-linejoin="round"/>
<path opacity="0.4" d="M2067.39 666.124C2067.99 666.124 2068.59 666.124 2069.2 666.124" stroke="white" stroke-width="2.7185" stroke-miterlimit="10" stroke-linecap="round" stroke-linejoin="round"/>
<path opacity="0.4" d="M1964.16 599.421C1963.56 599.421 1962.95 599.421 1962.35 599.421" stroke="white" stroke-width="2.7185" stroke-miterlimit="10" stroke-linecap="round" stroke-linejoin="round"/>
<path opacity="0.4" d="M2049.28 527.451C2049.28 528.036 2049.28 528.621 2049.28 529.206" stroke="white" stroke-width="2.7185" stroke-miterlimit="10" stroke-linecap="round" stroke-linejoin="round"/>
<path opacity="0.4" d="M1971.4 276.432C1972.9 276.432 1972.9 276.432 1971.4 276.432" stroke="white" stroke-width="2.7185" stroke-miterlimit="10" stroke-linecap="round" stroke-linejoin="round"/>
<path opacity="0.4" d="M1902.58 304.519C1904.08 304.519 1904.08 304.519 1902.58 304.519" stroke="white" stroke-width="2.7185" stroke-miterlimit="10" stroke-linecap="round" stroke-linejoin="round"/>
<path opacity="0.4" d="M1824.71 416.862C1824.71 418.311 1824.71 418.311 1824.71 416.862" stroke="white" stroke-width="2.7185" stroke-miterlimit="10" stroke-linecap="round" stroke-linejoin="round"/>
<path opacity="0.4" d="M1973.21 41.2136C1972.61 41.2136 1972.01 41.2136 1971.4 41.2136" stroke="white" stroke-width="2.7185" stroke-miterlimit="10" stroke-linecap="round" stroke-linejoin="round"/>
<path opacity="0.4" d="M2085.5 232.549C2084.9 232.549 2084.29 232.549 2083.69 232.549" stroke="white" stroke-width="2.7185" stroke-miterlimit="10" stroke-linecap="round" stroke-linejoin="round"/>
<path opacity="0.4" d="M2261.17 272.922C2261.17 273.507 2261.17 274.092 2261.17 274.677" stroke="white" stroke-width="2.7185" stroke-miterlimit="10" stroke-linecap="round" stroke-linejoin="round"/>
<path opacity="0.4" d="M2605.26 39.4585C2604.65 39.4585 2604.05 39.4585 2603.45 39.4585" stroke="white" stroke-width="2.7185" stroke-miterlimit="10" stroke-linecap="round" stroke-linejoin="round"/>
<path opacity="0.4" d="M2672.27 171.111C2672.27 171.696 2672.27 172.281 2672.27 172.866" stroke="white" stroke-width="2.7185" stroke-miterlimit="10" stroke-linecap="round" stroke-linejoin="round"/>
<path opacity="0.4" d="M2735.65 128.982C2735.65 128.397 2735.65 127.812 2735.65 127.227" stroke="white" stroke-width="2.7185" stroke-miterlimit="10" stroke-linecap="round" stroke-linejoin="round"/>
<path opacity="0.4" d="M2630.61 313.296C2631.22 313.881 2631.82 314.466 2632.42 315.051" stroke="white" stroke-width="2.7185" stroke-miterlimit="10" stroke-linecap="round" stroke-linejoin="round"/>
<path opacity="0.4" d="M2672.27 397.553C2672.87 397.553 2673.47 397.553 2674.08 397.553" stroke="white" stroke-width="2.7185" stroke-miterlimit="10" stroke-linecap="round" stroke-linejoin="round"/>
<path opacity="0.4" d="M2407.86 631.018C2406.65 631.018 2405.44 631.018 2404.24 631.018" stroke="white" stroke-width="2.7185" stroke-miterlimit="10" stroke-linecap="round" stroke-linejoin="round"/>
<path opacity="0.4" d="M2243.06 639.794C2242.45 640.379 2241.85 640.964 2241.24 641.549" stroke="white" stroke-width="2.7185" stroke-miterlimit="10" stroke-linecap="round" stroke-linejoin="round"/>
<path opacity="0.4" d="M2203.21 557.291C2202.61 556.706 2202.01 556.121 2201.4 555.536" stroke="white" stroke-width="2.7185" stroke-miterlimit="10" stroke-linecap="round" stroke-linejoin="round"/>
<path opacity="0.4" d="M2541.87 688.944C2541.27 688.944 2540.66 688.944 2540.06 688.944" stroke="white" stroke-width="2.7185" stroke-miterlimit="10" stroke-linecap="round" stroke-linejoin="round"/>
<path opacity="0.4" d="M2478.49 725.807C2477.88 725.807 2477.28 725.807 2476.68 725.807" stroke="white" stroke-width="2.7185" stroke-miterlimit="10" stroke-linecap="round" stroke-linejoin="round"/>
<path opacity="0.4" d="M2639.67 789C2639.06 789 2638.46 789 2637.86 789" stroke="white" stroke-width="2.7185" stroke-miterlimit="10" stroke-linecap="round" stroke-linejoin="round"/>
<path opacity="0.4" d="M2123.53 817.086C2123.53 818.535 2123.53 818.535 2123.53 817.086" stroke="white" stroke-width="2.7185" stroke-miterlimit="10" stroke-linecap="round" stroke-linejoin="round"/>
<path opacity="0.4" d="M2237.62 1025.97C2237.02 1025.97 2236.41 1025.97 2235.81 1025.97" stroke="white" stroke-width="2.7185" stroke-miterlimit="10" stroke-linecap="round" stroke-linejoin="round"/>
<path opacity="0.4" d="M2089.12 1087.41C2089.12 1086.83 2089.12 1086.24 2089.12 1085.66" stroke="white" stroke-width="2.7185" stroke-miterlimit="10" stroke-linecap="round" stroke-linejoin="round"/>
<path opacity="0.4" d="M2315.5 1108.48C2314.89 1107.89 2314.29 1107.31 2313.68 1106.72" stroke="white" stroke-width="2.7185" stroke-miterlimit="10" stroke-linecap="round" stroke-linejoin="round"/>
<path opacity="0.4" d="M2456.75 1124.28C2456.75 1124.86 2456.75 1125.45 2456.75 1126.03" stroke="white" stroke-width="2.7185" stroke-miterlimit="10" stroke-linecap="round" stroke-linejoin="round"/>
<path opacity="0.4" d="M2692.19 1043.53C2692.79 1043.53 2693.39 1043.53 2694 1043.53" stroke="white" stroke-width="2.7185" stroke-miterlimit="10" stroke-linecap="round" stroke-linejoin="round"/>
<path opacity="0.4" d="M2630.61 1127.79C2630.01 1128.37 2629.4 1128.96 2628.8 1129.54" stroke="white" stroke-width="2.7185" stroke-miterlimit="10" stroke-linecap="round" stroke-linejoin="round"/>
</g>
</svg>
