<svg width="1742" height="280" viewBox="0 0 1742 280" fill="none" xmlns="http://www.w3.org/2000/svg">
<g opacity="0.28">
<path opacity="0.28" d="M1742 14.0486C1742 6.28999 1730.48 0 1716.27 0H25.7343C11.5215 0 0 6.28928 0 14.0486C0 21.8072 11.5215 28.0972 25.7343 28.0972H1716.27C1730.48 28.0972 1742 21.8072 1742 14.0486Z" fill="white"/>
<path opacity="0.28" d="M128.134 59.4808H1613.87C1629.48 59.4808 1642.13 66.5062 1642.13 75.173C1642.13 83.8398 1629.48 90.8652 1613.87 90.8652H128.134C112.521 90.8652 99.8659 83.8398 99.8659 75.173C99.8672 66.5069 112.523 59.4808 128.134 59.4808Z" fill="white"/>
<path opacity="0.28" d="M262.656 28.0973C278.532 28.0973 291.402 35.1226 291.402 43.7895C291.402 52.4556 278.532 59.4816 262.656 59.4816H179.177V71.8782H1562.82V59.4816H1554.69C1538.81 59.4816 1525.94 52.4563 1525.94 43.7895C1525.94 35.1226 1538.81 28.0973 1554.69 28.0973H1562.82V15.7007H179.177V28.0973H262.656Z" fill="white"/>
<path opacity="0.28" d="M414.689 122.686H1327.31C1342.92 122.686 1355.58 129.711 1355.58 138.378C1355.58 147.045 1342.92 154.07 1327.31 154.07H414.689C399.076 154.07 386.421 147.045 386.421 138.378C386.422 129.711 399.077 122.686 414.689 122.686Z" fill="white"/>
<path opacity="0.28" d="M549.21 91.3013C565.086 91.3013 577.956 98.3267 577.956 106.994C577.956 115.66 565.086 122.686 549.21 122.686H465.731V135.082H1276.27V122.686H1268.13C1252.26 122.686 1239.39 115.66 1239.39 106.994C1239.39 98.3267 1252.26 91.3013 1268.13 91.3013H1276.27V78.9048H465.731V91.3013H549.21Z" fill="white"/>
<path opacity="0.28" d="M600.52 185.15H1187.26C1202.87 185.15 1215.53 192.176 1215.53 200.843C1215.53 209.509 1202.87 216.535 1187.26 216.535H600.52C584.909 216.535 572.252 209.509 572.252 200.843C572.253 192.176 584.909 185.15 600.52 185.15Z" fill="white"/>
<path opacity="0.28" d="M735.042 153.766C750.918 153.766 763.788 160.791 763.788 169.458C763.788 178.125 750.918 185.15 735.042 185.15H651.563V197.547H1136.22V185.15H1128.08C1112.21 185.15 1099.34 178.125 1099.34 169.458C1099.34 160.791 1112.21 153.766 1128.08 153.766H1136.22V141.369H651.563V153.766H735.042Z" fill="white"/>
<path opacity="0.28" d="M774.45 248.616H1072.54C1088.15 248.616 1100.8 255.641 1100.8 264.308C1100.8 272.975 1088.15 280 1072.54 280H774.45C758.839 280 746.182 272.975 746.182 264.308C746.182 255.641 758.838 248.616 774.45 248.616Z" fill="white"/>
<path opacity="0.28" d="M852.482 217.231C868.358 217.231 881.228 224.257 881.228 232.923C881.228 241.59 868.358 248.616 852.482 248.616H825.492V261.012H1021.49V248.616H1013.35C997.479 248.616 984.609 241.59 984.609 232.923C984.609 224.257 997.479 217.231 1013.35 217.231H1021.49V204.835H825.492V217.231H852.482V217.231Z" fill="white"/>
</g>
<path d="M1445.64 8.7417C1445.64 3.91393 1438.47 0 1429.63 0H377.697C368.853 0 361.684 3.91393 361.684 8.7417C361.684 13.5695 368.854 17.4833 377.697 17.4833H1429.63C1438.47 17.4833 1445.64 13.5695 1445.64 8.7417Z" fill="#FF7E0F"/>
<path d="M441.416 37.0124H1365.91C1375.63 37.0124 1383.5 41.3843 1383.5 46.7767C1383.5 52.169 1375.62 56.5409 1365.91 56.5409H441.416C431.7 56.5409 423.826 52.169 423.826 46.7767C423.826 41.3836 431.7 37.0124 441.416 37.0124Z" fill="#FF7E0F"/>
<path d="M525.121 17.4833C535 17.4833 543.008 21.8551 543.008 27.2474C543.008 32.6405 535 37.0117 525.121 37.0117H473.176V44.7251H1334.15V37.0117H1329.09C1319.21 37.0117 1311.2 32.6398 1311.2 27.2474C1311.2 21.8544 1319.21 17.4833 1329.09 17.4833H1334.15V9.76982H473.176V17.4833H525.121Z" fill="#FF7E0F"/>
<path d="M619.724 76.3411H1187.6C1197.32 76.3411 1205.19 80.713 1205.19 86.1053C1205.19 91.4977 1197.32 95.8695 1187.6 95.8695H619.724C610.01 95.8695 602.135 91.4977 602.135 86.1053C602.135 80.713 610.009 76.3411 619.724 76.3411Z" fill="#FF7E0F"/>
<path d="M703.43 56.8126C713.309 56.8126 721.316 61.1845 721.316 66.5768C721.316 71.9692 713.307 76.341 703.43 76.341H651.484V84.0545H1155.84V76.341H1150.78C1140.9 76.341 1132.89 71.9692 1132.89 66.5768C1132.89 61.1838 1140.9 56.8126 1150.78 56.8126H1155.84V49.0991H651.484V56.8126H703.43Z" fill="#FF7E0F"/>
<path d="M735.357 115.21H1100.46C1110.17 115.21 1118.05 119.582 1118.05 124.974C1118.05 130.367 1110.17 134.739 1100.46 134.739H735.357C725.643 134.739 717.768 130.367 717.768 124.974C717.768 119.581 725.643 115.21 735.357 115.21Z" fill="#FF7E0F"/>
<path d="M819.064 95.6811C828.943 95.6811 836.951 100.053 836.951 105.445C836.951 110.838 828.943 115.21 819.064 115.21H767.119V122.923H1068.7V115.21H1063.63C1053.75 115.21 1045.75 110.838 1045.75 105.445C1045.75 100.052 1053.75 95.6811 1063.63 95.6811H1068.7V87.9676H767.119V95.6811H819.064Z" fill="#FF7E0F"/>
<path d="M843.584 154.701H1029.07C1038.78 154.701 1046.66 159.073 1046.66 164.465C1046.66 169.858 1038.78 174.229 1029.07 174.229H843.584C833.869 174.229 825.995 169.858 825.995 164.465C825.995 159.073 833.87 154.701 843.584 154.701Z" fill="#FF7E0F"/>
<path d="M892.141 135.172C902.02 135.172 910.027 139.544 910.027 144.936C910.027 150.329 902.02 154.7 892.141 154.7H875.346V162.414H997.308V154.7H992.244C982.365 154.7 974.357 150.328 974.357 144.936C974.357 139.544 982.365 135.172 992.244 135.172H997.308V127.458H875.346V135.172H892.141Z" fill="#FF7E0F"/>
<path opacity="0.56" d="M643.451 15.7007H677.91" stroke="white" stroke-width="9.5309" stroke-miterlimit="10" stroke-linecap="round" stroke-linejoin="round"/>
<path opacity="0.56" d="M767.104 15.7007H925.218" stroke="white" stroke-width="9.5309" stroke-miterlimit="10" stroke-linecap="round" stroke-linejoin="round"/>
<path opacity="0.56" d="M1034.55 15.7007H1149.41" stroke="white" stroke-width="9.5309" stroke-miterlimit="10" stroke-linecap="round" stroke-linejoin="round"/>
<path opacity="0.56" d="M1180.95 15.7007H1215.94" stroke="white" stroke-width="9.5309" stroke-miterlimit="10" stroke-linecap="round" stroke-linejoin="round"/>
<path opacity="0.56" d="M925.218 57.4556H1040.08" stroke="white" stroke-width="9.5309" stroke-miterlimit="10" stroke-linecap="round" stroke-linejoin="round"/>
<path opacity="0.56" d="M899.655 95.5724H967.519" stroke="white" stroke-width="9.5309" stroke-miterlimit="10" stroke-linecap="round" stroke-linejoin="round"/>
<path opacity="0.56" d="M936.326 164.465H970.659" stroke="white" stroke-width="9.5309" stroke-miterlimit="10" stroke-linecap="round" stroke-linejoin="round"/>
<path opacity="0.56" d="M829.452 57.4556H864.446" stroke="white" stroke-width="9.5309" stroke-miterlimit="10" stroke-linecap="round" stroke-linejoin="round"/>
</svg>

