<svg width="691" height="1162" viewBox="0 0 691 1162" fill="none" xmlns="http://www.w3.org/2000/svg">
<path d="M690.831 35.1808C685.785 38.1108 680.932 41.2268 676.337 44.6598C667.851 66.7528 669.754 86.6878 666.265 108.546C656.421 104.825 646.892 92.7598 648.641 81.8238C637.198 104.09 636.92 120.19 636.427 148.13C619.694 75.7228 543.861 24.6558 492.782 10.5768C381.481 -21.5112 216.239 20.7948 139.503 118.71C175.434 96.3218 212.094 106.574 252.914 105.87C271.67 86.4948 296.912 72.4568 316.973 54.4238C316.973 54.4238 308.385 94.0268 305.516 107.683C337.257 98.9728 384.485 107.675 414.514 120.763C429.261 105.545 465.07 89.9568 484.891 85.5348C470.185 98.0338 448.721 121.529 440.536 137.993C463.178 149.678 484.615 176.708 494.758 198.298C468.692 183.779 266.976 136.37 144.556 267.732C36.2119 383.986 26.678 426.364 0 517.927C4.188 504.25 61.6589 430.25 97.5139 411.948C169.223 375.329 185.087 370.987 265.481 364.159C275.079 342.224 279.605 309.494 286.563 287.607C296.71 309.199 311.939 341.58 315.455 366.008C355.62 327.223 443.964 317.538 493.864 323.473C460.223 366.232 416.446 415.891 394.287 449.048C394.287 449.048 403.486 470.13 401.712 473.022C399.13 476.855 372.549 482.774 365.646 490.113C365.646 490.113 313.914 562.779 322.888 564.173C326.685 564.108 394.158 585.099 399.817 586.96C427.632 593.968 492.94 495.211 492.94 495.211C571.714 362.441 677.297 450.568 677.297 450.568C681.588 451.308 686.124 451.769 690.832 452.038V35.1808H690.831Z" fill="#C32846"/>
<path d="M367.825 296.521C359.825 302.521 357.825 312.521 353.825 320.521C326.825 288.521 299.825 254.521 254.825 250.521C236.825 278.521 238.825 318.521 232.825 351.521C209.825 340.521 182.825 335.521 158.825 347.521C90.9389 381.464 39.024 440.946 3.05298 507.423C2.05598 510.857 1.04298 514.35 0.000976562 517.927C4.18898 504.25 61.6599 430.25 97.5149 411.948C169.224 375.329 185.088 370.987 265.482 364.159C275.08 342.224 279.606 309.494 286.564 287.607C296.711 309.199 311.94 341.58 315.456 366.008C355.621 327.223 443.965 317.538 493.865 323.473C493.144 324.389 492.413 325.313 491.683 326.235C499.256 321.643 506.899 317.297 514.826 313.521C476.825 281.521 412.825 264.521 367.825 296.521Z" fill="#A11530"/>
<path d="M684.825 342.521C677.825 332.521 673.825 320.521 665.825 310.521C626.825 261.521 588.825 218.521 536.825 179.521C520.825 167.521 497.825 152.521 500.825 135.521C502.825 122.521 522.825 111.521 539.825 107.521C521.825 92.5208 508.825 69.5207 485.825 63.5207C472.825 59.5207 455.825 74.5207 446.825 75.5207C413.825 78.5207 377.825 75.5207 343.825 74.5207C340.825 58.5207 342.825 43.5208 342.825 27.5208C319.825 28.5208 304.825 48.5207 285.825 58.5207C240.403 83.0487 193.33 99.3228 143.858 113.344C142.38 115.116 140.922 116.9 139.504 118.71C175.435 96.3217 212.095 106.574 252.915 105.87C271.671 86.4948 296.914 72.4567 316.974 54.4247C316.974 54.4247 308.386 94.0277 305.517 107.684C337.258 98.9737 384.486 107.676 414.515 120.764C429.262 105.546 465.071 89.9577 484.892 85.5357C470.186 98.0347 448.722 121.53 440.537 137.994C463.179 149.679 484.616 176.709 494.759 198.299C493.191 197.426 490.981 196.432 488.197 195.367C492.015 198.742 495.595 202.412 498.825 206.522C521.825 232.522 544.825 254.522 568.825 279.522C583.825 294.522 601.825 304.522 616.825 319.522C641.349 344.659 666.247 367.167 690.831 390.268V350.03C688.861 347.522 686.863 345.019 684.825 342.521Z" fill="#A11530"/>
<path d="M550.825 396.521C544.825 397.521 537.825 400.521 532.825 404.521C474.335 457.441 426.193 517.26 385.189 582.37C392.75 584.715 398.353 586.477 399.816 586.959C427.631 593.967 492.939 495.21 492.939 495.21C571.713 362.44 677.296 450.567 677.296 450.567C681.587 451.307 686.122 451.768 690.831 452.037V412.707C668.761 406.98 645.979 402.432 622.825 397.521C598.825 392.521 574.825 394.521 550.825 396.521Z" fill="#A11530"/>
<path d="M320.81 82.9748C320.81 72.5178 319.02 65.8298 316.974 54.4248C315.721 60.2638 306.256 104.167 305.517 107.684C308.83 106.775 312.32 106.066 315.934 105.521C318.533 93.4718 320.81 82.9748 320.81 82.9748Z" fill="#FF5B7B"/>
<path d="M401.929 472.047C425.016 439.061 465.885 392.461 497.7 352.023C489.999 351.107 481.38 350.564 472.166 350.442C443.179 385.902 411.903 422.689 394.287 449.048C394.286 449.048 402.128 467.021 401.929 472.047Z" fill="#FF5B7B"/>
<path d="M496.618 39.1268C547.697 53.2058 623.53 104.273 640.263 176.68C640.755 148.741 641.034 132.64 652.477 110.374C650.728 121.31 660.257 133.375 670.101 137.096C673.589 115.239 671.686 95.3028 680.173 73.2098C683.592 70.6558 687.154 68.2778 690.832 66.0208V35.1808C685.786 38.1108 680.933 41.2268 676.337 44.6598C667.851 66.7528 669.754 86.6878 666.265 108.546C656.421 104.825 646.892 92.7598 648.641 81.8238C637.198 104.09 636.92 120.19 636.427 148.13C619.694 75.7228 543.861 24.6558 492.782 10.5768C381.481 -21.5112 216.239 20.7948 139.503 118.71C154.968 109.074 170.569 105.492 186.578 104.473C271.769 37.6838 403.192 12.1928 496.618 39.1268Z" fill="#FF5B7B"/>
<path d="M369.481 518.662C376.384 511.323 402.966 505.404 405.547 501.571C407.321 498.68 398.122 477.597 398.122 477.597C398.896 476.438 399.703 475.255 400.529 474.057C394.691 477.884 371.955 483.404 365.645 490.112C365.645 490.112 313.913 562.778 322.887 564.172C323.887 564.155 329.309 565.6 336.854 567.771C349.832 546.263 369.481 518.662 369.481 518.662Z" fill="#FF5B7B"/>
<path d="M484.892 85.5359C484.892 85.5359 459.64 107.683 444.312 131.334C442.864 133.644 441.589 135.878 440.537 137.994C445.857 140.739 451.108 144.34 456.164 148.51C466.05 135.712 475.061 93.8919 484.892 85.5359Z" fill="#FF5B7B"/>
<path d="M148.392 296.282C270.812 164.92 472.528 212.33 498.594 226.848C493.196 215.358 484.598 202.326 474.322 190.887C414.023 174.039 249.921 154.671 144.556 267.732C36.2119 383.986 26.678 426.364 0 517.927C1.56 512.834 10.5091 499.376 22.9771 483.546C41.9431 428.258 67.8908 382.661 148.392 296.282Z" fill="#FF5B7B"/>
<path d="M678.523 312.785C671.783 292.899 670.451 272.071 662.344 251.032C585.643 206.777 448.566 234.374 383.681 262.965C383.681 262.965 664.799 285.3 656.527 504.739C650.8 500.667 645.326 495.92 640.226 490.694C549.926 440.643 369 468.089 291.664 506.747C124.422 590.367 41.9758 711.475 41.9758 885.143C63.2008 844.121 90.079 812.944 118.281 789.231C128.854 757.233 150.24 729.624 182.436 712.825C173.526 729.159 164.621 745.493 156.301 761.826C225.747 719.18 291.664 714.718 291.664 714.718C291.664 698.865 299.591 659.234 299.591 655.269C315.445 659.229 343.191 675.084 351.118 690.94C373.926 671.638 404.507 657.01 437.004 648.062C435.057 636.662 433.624 625.262 432.2 613.862C441.503 623.165 450.788 632.488 458.931 642.952C493.193 636.36 528.121 636.106 557.215 643.379C480.114 703.602 431.019 770.388 400.549 835.446C402.986 846.863 408.159 857.959 413.35 868.339C405.664 864.496 397.979 861.375 390.293 858.924C325.604 1018.83 368.604 1161.95 377.47 1161.95C372.2 1139.14 395.54 1073.72 424.05 1016.8C420.667 1007.37 417.393 997.94 413.35 988.508C420.856 990.009 428.348 992.483 434.637 996.506C454.357 960.257 475.119 930.62 489.874 922.989C489.874 922.989 481.231 896.13 484.432 867.221C484.432 867.221 489.975 882.348 503.475 894.494C535.144 866.153 619.705 803.343 690.83 771.5V302.157C687.554 306.722 683.603 310.5 678.523 312.785Z" fill="#C32846"/>
<path d="M557.216 643.379C557.338 610.847 534.095 582.91 502.08 577.129C471.734 571.65 441.46 567.313 410.825 574.522C386.825 579.522 398.825 613.522 380.825 625.522C375.825 628.522 364.825 616.522 355.825 613.522C301.825 601.522 265.825 651.522 225.825 679.522C220.825 669.522 224.825 650.522 215.825 649.522C181.825 646.522 157.825 680.522 133.825 702.522C91.893 740.116 67.211 787.642 44.283 836.406C42.75 852.175 41.9771 868.412 41.9771 885.143C63.2021 844.121 90.08 812.944 118.282 789.231C128.855 757.233 150.241 729.624 182.437 712.825C173.527 729.159 164.623 745.493 156.302 761.826C225.748 719.18 291.665 714.718 291.665 714.718C291.665 698.865 299.592 659.234 299.592 655.269C315.446 659.229 343.192 675.084 351.119 690.94C373.927 671.638 404.508 657.01 437.005 648.062C435.058 636.662 433.625 625.262 432.2 613.862C441.503 623.165 450.788 632.488 458.931 642.952C490.385 636.9 522.387 636.209 549.934 641.76C553.782 642.305 557.216 643.379 557.216 643.379Z" fill="#A11530"/>
<path d="M512.825 862.521C497.825 845.521 499.825 820.521 484.825 803.521C459.825 834.521 454.825 882.521 453.825 923.521C440.825 919.521 422.825 924.521 415.825 935.521C377.468 991.458 376.788 1053.78 383.675 1116.36C392.058 1087.29 407.145 1050.55 424.051 1016.8C420.668 1007.37 417.394 997.94 413.351 988.508C420.857 990.009 428.349 992.483 434.638 996.506C454.358 960.257 475.12 930.62 489.875 922.989C489.875 922.989 481.232 896.13 484.433 867.221C484.433 867.221 489.976 882.348 503.476 894.494C535.145 866.153 619.706 803.343 690.831 771.5V721.049C649.971 736.503 615.289 760.15 579.825 788.521C552.825 809.521 532.825 835.521 512.825 862.521Z" fill="#A11530"/>
<path d="M690.831 595.983V460.799C674.259 423.014 652.848 387.458 626.825 351.522C605.825 321.522 574.825 305.522 542.825 290.522C501.804 272.397 458.957 259.743 413.427 251.67C402.426 255.303 392.397 259.124 383.681 262.965C383.681 262.965 664.799 285.3 656.527 504.739C655.898 504.292 655.273 503.833 654.651 503.37C660.8 519.603 667.431 535.647 673.232 552.522C678.205 567.445 684.354 581.782 690.831 595.983Z" fill="#A11530"/>
<path d="M304.581 526.711C381.917 488.052 538.974 472.918 656.527 504.739C650.8 500.667 645.326 495.92 640.226 490.694C549.926 440.643 369 468.089 291.664 506.747C124.422 590.367 41.9758 711.475 41.9758 885.143C46.6968 876.018 51.6999 867.383 56.9329 859.206C70.5329 709.814 152.487 602.757 304.581 526.711Z" fill="#FF5B7B"/>
<path d="M690.831 330.858V302.158C689.144 304.508 687.275 306.643 685.169 308.479C686.776 316.039 688.469 323.51 690.831 330.858Z" fill="#FF5B7B"/>
<path d="M667.353 266.795C665.981 261.562 664.375 256.303 662.344 251.032C585.643 206.777 448.566 234.374 383.681 262.965C383.681 262.965 402.403 264.453 430.041 270.431C498.267 248.596 601.484 234.494 667.353 266.795Z" fill="#FF5B7B"/>
<path d="M195.353 732.789C181.752 739.885 170.089 748.917 160.346 759.387C170.111 753.584 179.78 748.526 189.181 744.12C191.234 740.342 193.293 736.565 195.353 732.789Z" fill="#FF5B7B"/>
<path d="M377.124 1147.14C365.458 1095.14 357.795 991.153 403.211 878.888C410.897 881.339 418.582 884.46 426.268 888.303C421.077 877.923 415.904 866.826 413.467 855.41C443.937 790.353 493.033 723.566 570.133 663.344C560.222 660.867 549.624 659.283 538.616 658.505C472.115 714.677 428.492 775.787 400.55 835.447C402.987 846.864 408.16 857.96 413.351 868.34C405.665 864.497 397.98 861.376 390.294 858.925C325.605 1018.83 368.605 1161.95 377.471 1161.95C376.588 1158.13 376.512 1153.11 377.124 1147.14Z" fill="#FF5B7B"/>
<path d="M498.158 889.14C497.611 887.9 497.349 887.185 497.349 887.185C497.315 887.495 497.289 887.802 497.258 888.112C497.552 888.454 497.852 888.797 498.158 889.14Z" fill="#FF5B7B"/>
</svg>
